<?xml version="1.0" encoding="utf-8"?>
<!-- Generator: Adobe Illustrator 27.1.1, SVG Export Plug-In . SVG Version: 6.00 Build 0)  -->
<svg version="1.1" id="Ebene_1" xmlns="http://www.w3.org/2000/svg" xmlns:xlink="http://www.w3.org/1999/xlink" x="0px" y="0px"
	 viewBox="0 0 16 16" style="enable-background:new 0 0 16 16;" xml:space="preserve">
<style type="text/css">
	.st0{fill:url(#SVGID_1_);}
	.st1{fill:#E7E7E7;}
</style>
<linearGradient id="SVGID_1_" gradientUnits="userSpaceOnUse" x1="8" y1="12.9328" x2="8" y2="2.8468" gradientTransform="matrix(1 0 0 -1 0 15.8898)">
	<stop  offset="0" style="stop-color:#FF5F5F"/>
	<stop  offset="0.5" style="stop-color:#E1DA5B"/>
	<stop  offset="1" style="stop-color:#5FFF97"/>
</linearGradient>
<path class="st0" d="M10.9,3.7c0.4,0,0.7,0.3,0.7,0.7s-0.3,0.7-0.7,0.7c-3.2,0-5.8,2.6-5.8,5.8c0,0.4-0.3,0.7-0.7,0.7
	s-0.7-0.3-0.7-0.7C3.7,6.9,6.9,3.7,10.9,3.7z M10.9,6.6c0.4,0,0.7,0.3,0.7,0.7c0,0.4-0.3,0.7-0.7,0.7C9.3,8,8,9.3,8,10.9
	c0,0.4-0.3,0.7-0.7,0.7c-0.4,0-0.7-0.3-0.7-0.7C6.6,8.5,8.5,6.6,10.9,6.6z M10.9,9.4c0.8,0,1.4,0.6,1.4,1.4s-0.6,1.4-1.4,1.4
	s-1.4-0.6-1.4-1.4S10.1,9.4,10.9,9.4z"/>
<g>
	<polygon class="st1" points="12.5,1.2 12.5,2.2 13.6,2.2 13.6,13.8 12.5,13.8 12.5,14.8 14.8,14.8 14.8,1.2 	"/>
	<polygon class="st1" points="3.7,13.8 2.4,13.8 2.4,2.2 3.7,2.2 3.7,1.2 1.2,1.2 1.2,14.8 3.7,14.8 	"/>
</g>
</svg>
