<?xml version="1.0" encoding="utf-8"?>
<!-- Generator: Adobe Illustrator 27.1.1, SVG Export Plug-In . SVG Version: 6.00 Build 0)  -->
<svg version="1.1" id="Ebene_1" xmlns="http://www.w3.org/2000/svg" xmlns:xlink="http://www.w3.org/1999/xlink" x="0px" y="0px"
	 viewBox="0 0 16 16" style="enable-background:new 0 0 16 16;" xml:space="preserve">
<style type="text/css">
	.st0{fill:url(#SVGID_1_);}
	.st1{fill:#FC7F7F;}
</style>
<linearGradient id="SVGID_1_" gradientUnits="userSpaceOnUse" x1="6.9998" y1="14.8898" x2="6.9998" y2="0.8898" gradientTransform="matrix(1 0 0 -1 0 15.8898)">
	<stop  offset="0" style="stop-color:#FF5F5F"/>
	<stop  offset="0.5" style="stop-color:#E1DA5B"/>
	<stop  offset="1" style="stop-color:#5FFF97"/>
</linearGradient>
<path class="st0" d="M13,2c0-0.6-0.4-1-1-1L4.8,3C4.3,3.1,4,3.5,4,4v5.6c-1.4-0.3-2.7,0.6-2.9,1.9s0.6,2.7,1.9,2.9
	c1.4,0.3,2.7-0.6,2.9-1.9C6,12.3,6,12.2,6,12V4.8l5-1.4v3.2l2-1V2z"/>
<path class="st1" d="M13.7,7.4H8.9c-0.6,0-1.1,0.5-1.1,1.1v4.8c0,0.6,0.5,1.1,1.1,1.1h4.8c0.6,0,1.1-0.5,1.1-1.1V8.6
	C14.9,7.9,14.4,7.4,13.7,7.4z M11.7,13.5c-0.1,0.1-0.3,0.2-0.5,0.2c-0.2,0-0.3-0.1-0.5-0.2c-0.1-0.1-0.2-0.3-0.2-0.5
	c0-0.2,0.1-0.3,0.2-0.5c0.1-0.1,0.3-0.2,0.5-0.2c0.2,0,0.3,0.1,0.5,0.2c0.1,0.1,0.2,0.3,0.2,0.5S11.9,13.4,11.7,13.5z M12.9,10.5
	c-0.1,0.2-0.2,0.3-0.3,0.5c-0.1,0.1-0.3,0.2-0.4,0.3c-0.1,0.1-0.2,0.2-0.3,0.3c-0.1,0.1-0.1,0.2-0.1,0.3l0,0.1h-1c0-0.1,0-0.1,0-0.2
	c0-0.2,0-0.4,0.1-0.6c0.1-0.2,0.2-0.3,0.3-0.4c0.1-0.1,0.2-0.2,0.4-0.3c0.1-0.1,0.2-0.2,0.3-0.3c0.1-0.1,0.1-0.2,0.1-0.4
	c0-0.2-0.1-0.3-0.2-0.4s-0.3-0.2-0.5-0.2S11,9.4,10.9,9.5s-0.2,0.3-0.2,0.5l0,0.4h-1c0-0.1,0-0.3,0-0.4c0-0.4,0.2-0.8,0.5-1.1
	s0.7-0.4,1.2-0.4c0.5,0,0.9,0.1,1.2,0.4C12.9,9.1,13,9.5,13,9.9C13,10.1,13,10.3,12.9,10.5z"/>
</svg>
